<svg width="42" height="42" viewBox="0 0 42 42" fill="none" xmlns="http://www.w3.org/2000/svg">
<rect x="3" y="3" width="36" height="36" rx="18" fill="#D4F3EC"/>
<rect x="3" y="3" width="36" height="36" rx="18" stroke="#F2FBF9" stroke-width="6"/>
<path d="M29.4338 21.6267C29.5468 20.1917 29.275 18.7525 28.6463 17.4576C27.6058 18.4462 26.3758 19.2139 25.0305 19.7142C25.1387 21.042 25.0787 22.3781 24.8522 23.6909C26.4892 23.2786 28.0404 22.5798 29.4338 21.6267ZM23.528 23.9584C23.7942 22.6859 23.8872 21.3833 23.8047 20.0859C23.0113 20.2751 22.1838 20.3751 21.333 20.3751C20.4822 20.3751 19.6547 20.2751 18.8613 20.0859C18.7807 21.3833 18.8737 22.6856 19.138 23.9584C20.5928 24.1814 22.0732 24.1814 23.528 23.9584ZM19.4763 25.2659C20.7098 25.4118 21.9562 25.4118 23.1897 25.2659C22.7657 26.6305 22.1399 27.924 21.333 29.1034C20.5261 27.9241 19.9002 26.6306 19.4763 25.2659ZM17.8138 23.6917C17.586 22.3785 17.5261 21.0417 17.6355 19.7134C16.2899 19.2132 15.0596 18.4455 14.0188 17.4567C13.3903 18.752 13.1188 20.1915 13.2322 21.6267C14.6256 22.5798 16.1768 23.2794 17.8138 23.6917ZM29.1297 23.2934C28.7089 24.7192 27.9057 26.0025 26.8071 27.004C25.7085 28.0054 24.3565 28.6869 22.898 28.9742C23.6284 27.7461 24.1859 26.4231 24.5547 25.0426C26.1626 24.7056 27.7068 24.1154 29.1297 23.2942V23.2934ZM13.5363 23.2934C14.938 24.1026 16.478 24.7001 18.1113 25.0426C18.4801 26.4231 19.0376 27.7461 19.768 28.9742C18.3096 28.6869 16.9577 28.0056 15.8591 27.0043C14.7605 26.003 13.9572 24.7199 13.5363 23.2942V23.2934ZM22.898 13.0251C24.9628 13.4309 26.7897 14.6216 27.9947 16.3467C27.1052 17.2454 26.0434 17.9551 24.873 18.4334C24.5576 16.5232 23.8878 14.6889 22.898 13.0251ZM21.333 12.8967C22.5492 14.6735 23.3482 16.702 23.6705 18.8309C22.923 19.0226 22.1397 19.1251 21.333 19.1251C20.5263 19.1251 19.743 19.0234 18.9955 18.8309C19.3177 16.702 20.1168 14.6735 21.333 12.8967ZM19.768 13.0251C18.7782 14.6889 18.1083 16.5232 17.793 18.4334C16.6225 17.9551 15.5608 17.2454 14.6713 16.3467C15.8764 14.6218 17.7033 13.4306 19.768 13.0251Z" fill="#2E9E8D"/>
</svg>
