<svg width="42" height="42" viewBox="0 0 42 42" fill="none" xmlns="http://www.w3.org/2000/svg">
<rect x="3" y="3" width="36" height="36" rx="18" fill="#D4F3EC"/>
<rect x="3" y="3" width="36" height="36" rx="18" stroke="#F2FBF9" stroke-width="6"/>
<path fill-rule="evenodd" clip-rule="evenodd" d="M12.875 16C12.875 15.337 13.1384 14.7011 13.6072 14.2322C14.0761 13.7634 14.712 13.5 15.375 13.5H26.625C27.288 13.5 27.9239 13.7634 28.3928 14.2322C28.8616 14.7011 29.125 15.337 29.125 16V26C29.125 26.663 28.8616 27.2989 28.3928 27.7678C27.9239 28.2366 27.288 28.5 26.625 28.5H15.375C14.712 28.5 14.0761 28.2366 13.6072 27.7678C13.1384 27.2989 12.875 26.663 12.875 26V16ZM16.1833 16.8083C16.3005 16.6913 16.4594 16.6255 16.625 16.6255C16.7906 16.6255 16.9495 16.6913 17.0667 16.8083L18.9417 18.6833C19.0587 18.8005 19.1244 18.9594 19.1244 19.125C19.1244 19.2906 19.0587 19.4495 18.9417 19.5667L17.0667 21.4417C16.9482 21.5521 16.7915 21.6122 16.6296 21.6093C16.4676 21.6065 16.3132 21.5409 16.1986 21.4264C16.0841 21.3118 16.0185 21.1574 16.0157 20.9954C16.0128 20.8335 16.0729 20.6768 16.1833 20.5583L17.6167 19.125L16.1833 17.6917C16.0663 17.5745 16.0005 17.4156 16.0005 17.25C16.0005 17.0844 16.0663 16.9255 16.1833 16.8083ZM19.75 20.375C19.5842 20.375 19.4253 20.4408 19.3081 20.5581C19.1908 20.6753 19.125 20.8342 19.125 21C19.125 21.1658 19.1908 21.3247 19.3081 21.4419C19.4253 21.5592 19.5842 21.625 19.75 21.625H22.25C22.4158 21.625 22.5747 21.5592 22.6919 21.4419C22.8092 21.3247 22.875 21.1658 22.875 21C22.875 20.8342 22.8092 20.6753 22.6919 20.5581C22.5747 20.4408 22.4158 20.375 22.25 20.375H19.75Z" fill="#2E9E8D"/>
</svg>
