<svg width="84" height="24" viewBox="0 0 84 24" fill="none" xmlns="http://www.w3.org/2000/svg">
<g clip-path="url(#clip0_240_64)">
<path d="M9.09675 3.97278V10.7425H2.92846V3.97278H0V20.1328H2.92846V13.5829H9.09675V20.1328H12.0252V3.97278H9.09675Z" fill="#6D6D6D"/>
<path d="M21.3976 14.909C21.3976 15.5567 21.1424 16.1778 20.688 16.6357C20.2337 17.0937 19.6174 17.351 18.9749 17.351C18.3324 17.351 17.7162 17.0937 17.2618 16.6357C16.8075 16.1778 16.5522 15.5567 16.5522 14.909V7.98743H13.7744V14.909C13.7744 16.2979 14.3218 17.6299 15.2961 18.612C16.2705 19.5941 17.592 20.1458 18.9699 20.1458C20.3478 20.1458 21.6693 19.5941 22.6436 18.612C23.618 17.6299 24.1654 16.2979 24.1654 14.909V7.98743H21.3976V14.909Z" fill="#6D6D6D"/>
<path d="M41.9787 8.70047C41.9787 7.28173 42.9099 6.83195 43.9301 6.83195C44.7522 6.83195 45.8384 7.4625 46.5486 8.22755L48.368 6.0669C47.4597 4.82894 45.6174 3.97278 44.1094 3.97278C41.0963 3.97278 38.9168 5.75163 38.9168 8.70047C38.9168 14.1715 45.5514 12.4361 45.5514 15.4977C45.5514 16.4421 44.6417 17.2765 43.6001 17.2765C41.9572 17.2765 41.4249 16.4667 40.6702 15.6105L38.6514 17.7263C39.9427 19.3244 41.5354 20.1357 43.4437 20.1357C46.3061 20.1357 48.609 18.3352 48.609 15.5208C48.609 9.44672 41.9744 11.334 41.9744 8.70047" fill="#6D6D6D"/>
<path d="M83.0229 17.5513C81.3815 17.5513 80.9152 16.8354 80.9152 15.7392V10.8871H83.4663V8.42856H80.9152V5.18469L78.0986 6.45881V16.3423C78.0986 18.8703 79.829 20.1444 82.2022 20.1444C82.5744 20.1512 82.9464 20.1212 83.3128 20.0547L84 17.505C83.6901 17.5267 83.3343 17.5484 83.0229 17.5484" fill="#6D6D6D"/>
<path d="M31.9702 8.0685C30.5942 8.0685 29.6343 8.47055 28.7059 9.38889V4.0697H25.9238V13.9286C25.9238 17.6193 28.5711 20.1473 31.5454 20.1473C34.8455 20.1473 37.7482 17.5745 37.7482 14.1094C37.7482 10.6876 35.0765 8.06994 31.9702 8.06994V8.0685ZM31.9529 17.3257C31.3286 17.3257 30.7183 17.1391 30.1992 16.7895C29.6801 16.4399 29.2755 15.943 29.0366 15.3616C28.7977 14.7803 28.7352 14.1405 28.857 13.5233C28.9788 12.9062 29.2794 12.3392 29.7209 11.8943C30.1623 11.4493 30.7248 11.1463 31.3371 11.0235C31.9494 10.9007 32.5841 10.9638 33.1609 11.2046C33.7377 11.4454 34.2307 11.8532 34.5776 12.3764C34.9244 12.8996 35.1095 13.5148 35.1095 14.1441C35.1095 14.9879 34.777 15.7972 34.185 16.3938C33.593 16.9905 32.7901 17.3257 31.9529 17.3257Z" fill="#6D6D6D"/>
<path d="M62.1788 13.9618C62.1788 10.4909 59.2819 7.92383 55.9761 7.92383C53.0017 7.92383 50.3545 10.4518 50.3545 14.1426V24.0072H53.1366V18.6808C54.0635 19.5977 55.0248 20.0012 56.3994 20.0012C59.5058 20.0012 62.1774 17.385 62.1774 13.9618H62.1788ZM59.5445 13.9271C59.5445 14.5564 59.3594 15.1715 59.0125 15.6947C58.6657 16.2179 58.1727 16.6258 57.5959 16.8666C57.0191 17.1074 56.3844 17.1704 55.7721 17.0476C55.1598 16.9249 54.5973 16.6218 54.1558 16.1769C53.7144 15.7319 53.4138 15.165 53.292 14.5478C53.1702 13.9306 53.2327 13.2909 53.4716 12.7095C53.7105 12.1281 54.1151 11.6312 54.6342 11.2816C55.1533 10.932 55.7636 10.7454 56.3879 10.7454C57.2251 10.7454 58.028 11.0806 58.6199 11.6773C59.2119 12.274 59.5445 13.0832 59.5445 13.9271Z" fill="#6D6D6D"/>
<path d="M71.1666 7.78787V4.97063C71.536 4.79667 71.8488 4.52054 72.0685 4.17438C72.2882 3.82823 72.4059 3.42628 72.4077 3.01535V2.95027C72.4077 2.37493 72.181 1.82315 71.7774 1.41632C71.3738 1.00949 70.8263 0.780939 70.2555 0.780939H70.191C69.6202 0.780939 69.0727 1.00949 68.6691 1.41632C68.2655 1.82315 68.0387 2.37493 68.0387 2.95027V3.01535C68.0406 3.42628 68.1583 3.82823 68.378 4.17438C68.5977 4.52054 68.9105 4.79667 69.2798 4.97063V7.78787C68.2182 7.95157 67.2184 8.3951 66.3815 9.07356L58.7167 3.05584C58.771 2.8574 58.7999 2.6528 58.8028 2.44698C58.8037 1.96352 58.6622 1.49067 58.3964 1.08823C58.1306 0.685791 57.7524 0.371847 57.3096 0.186108C56.8667 0.000369021 56.3792 -0.0488204 55.9086 0.0447614C55.438 0.138343 55.0056 0.370492 54.6659 0.711844C54.3262 1.0532 54.0946 1.48842 54.0004 1.96245C53.9061 2.43649 53.9535 2.92805 54.1365 3.37496C54.3194 3.82186 54.6298 4.20404 55.0283 4.47314C55.4267 4.74224 55.8954 4.88618 56.3751 4.88675C56.7945 4.88486 57.2061 4.77217 57.5689 4.55991L65.1174 10.4793C64.4392 11.5118 64.0853 12.7264 64.1019 13.9647C64.1186 15.203 64.5049 16.4075 65.2107 17.4211L62.915 19.7351C62.7293 19.6753 62.5359 19.6436 62.3411 19.6411C61.9473 19.6414 61.5625 19.7593 61.2352 19.98C60.9079 20.2007 60.6529 20.5142 60.5023 20.8809C60.3517 21.2477 60.3124 21.6511 60.3893 22.0404C60.4662 22.4296 60.6558 22.7872 60.9343 23.0678C61.2127 23.3485 61.5674 23.5396 61.9536 23.6171C62.3398 23.6946 62.7401 23.655 63.104 23.5033C63.4678 23.3515 63.7789 23.0944 63.9978 22.7646C64.2167 22.4347 64.3337 22.0468 64.334 21.6499C64.3316 21.4534 64.3001 21.2585 64.2408 21.0714L66.5121 18.782C67.2527 19.3565 68.114 19.7525 69.0298 19.9397C69.9457 20.1268 70.892 20.1003 71.7961 19.8619C72.7002 19.6236 73.5383 19.1799 74.246 18.5647C74.9537 17.9495 75.5124 17.1793 75.8792 16.3129C76.246 15.4465 76.4112 14.507 76.3621 13.5664C76.3131 12.6257 76.0511 11.7088 75.5962 10.886C75.1414 10.0631 74.5057 9.35614 73.7379 8.81913C72.9701 8.28212 72.0906 7.92936 71.1666 7.78787ZM70.2254 17.0523C69.6041 17.0518 68.9969 16.8656 68.4806 16.5173C67.9642 16.169 67.5619 15.6742 67.3245 15.0955C67.0871 14.5168 67.0252 13.8801 67.1466 13.266C67.2681 12.6518 67.5674 12.0878 68.0069 11.6451C68.4463 11.2023 69.006 10.9009 69.6154 10.7787C70.2248 10.6566 70.8564 10.7193 71.4304 10.9589C72.0044 11.1984 72.4951 11.6042 72.8404 12.1248C73.1858 12.6454 73.3702 13.2574 73.3705 13.8837C73.3705 14.7237 73.0395 15.5293 72.4502 16.1232C71.8609 16.7172 71.0616 17.0509 70.2283 17.0509" fill="#6D6D6D"/>
</g>
<defs>
<clipPath id="clip0_240_64">
<rect width="84" height="24" fill="white"/>
</clipPath>
</defs>
</svg>
