<svg width="42" height="42" viewBox="0 0 42 42" fill="none" xmlns="http://www.w3.org/2000/svg">
<rect x="3" y="3" width="36" height="36" rx="18" fill="#D4F3EC"/>
<rect x="3" y="3" width="36" height="36" rx="18" stroke="#F2FBF9" stroke-width="6"/>
<path d="M19.75 26.625C19.5842 26.625 19.4253 26.6908 19.3081 26.8081C19.1908 26.9253 19.125 27.0842 19.125 27.25C19.125 27.4158 19.1908 27.5747 19.3081 27.6919C19.4253 27.8092 19.5842 27.875 19.75 27.875H22.25C22.4158 27.875 22.5747 27.8092 22.6919 27.6919C22.8092 27.5747 22.875 27.4158 22.875 27.25C22.875 27.0842 22.8092 26.9253 22.6919 26.8081C22.5747 26.6908 22.4158 26.625 22.25 26.625H19.75Z" fill="#2E9E8D"/>
<path fill-rule="evenodd" clip-rule="evenodd" d="M18.1875 11.625C17.4416 11.625 16.7262 11.9213 16.1988 12.4488C15.6713 12.9762 15.375 13.6916 15.375 14.4375V27.5625C15.375 28.3084 15.6713 29.0238 16.1988 29.5512C16.7262 30.0787 17.4416 30.375 18.1875 30.375H23.8125C24.5584 30.375 25.2738 30.0787 25.8012 29.5512C26.3287 29.0238 26.625 28.3084 26.625 27.5625V14.4375C26.625 13.6916 26.3287 12.9762 25.8012 12.4488C25.2738 11.9213 24.5584 11.625 23.8125 11.625H18.1875ZM17.25 14.4375C17.25 13.92 17.67 13.5 18.1875 13.5H19.125V13.8125C19.125 14.33 19.545 14.75 20.0625 14.75H21.9375C22.455 14.75 22.875 14.33 22.875 13.8125V13.5H23.8125C24.33 13.5 24.75 13.92 24.75 14.4375V27.5625C24.75 28.08 24.33 28.5 23.8125 28.5H18.1875C17.9389 28.5 17.7004 28.4012 17.5246 28.2254C17.3488 28.0496 17.25 27.8111 17.25 27.5625V14.4375Z" fill="#2E9E8D"/>
</svg>
