<svg width="30" height="30" viewBox="0 0 30 30" fill="none" xmlns="http://www.w3.org/2000/svg">
<rect x="3" y="3" width="24" height="24" rx="12" fill="#D4F3EC"/>
<rect x="3" y="3" width="24" height="24" rx="12" stroke="#F2FBF9" stroke-width="6"/>
<path fill-rule="evenodd" clip-rule="evenodd" d="M20.7327 8C20.482 8 20.2374 8.074 20.0294 8.21333L16.6427 10.47C15.7929 11.0367 15.0158 11.7055 14.3287 12.4613C15.74 13.1247 16.8753 14.2601 17.5387 15.6713C18.2946 14.9841 18.9634 14.2067 19.53 13.3567L21.7874 9.97067C21.9145 9.77974 21.9874 9.55791 21.9984 9.32881C22.0094 9.09971 21.9581 8.87191 21.8498 8.66968C21.7416 8.46746 21.5806 8.29838 21.3838 8.18044C21.1871 8.06251 20.9621 8.00015 20.7327 8ZM15.1994 17.35C15.6364 17.1073 16.0585 16.8386 16.4634 16.5453C16.1943 15.8647 15.7885 15.2466 15.271 14.7291C14.7535 14.2116 14.1353 13.8057 13.4547 13.5367C13.1615 13.9413 12.8928 14.3632 12.65 14.8L12.4647 15.1333C13.0355 15.2975 13.5552 15.604 13.9751 16.0241C14.395 16.4441 14.7013 16.9639 14.8654 17.5347L15.2 17.3493L15.1994 17.35ZM11.5 16C10.837 16 10.2011 16.2634 9.73227 16.7322C9.26343 17.2011 9.00004 17.837 9.00004 18.5C9.00007 18.637 8.97195 18.7726 8.91742 18.8983C8.86289 19.024 8.7831 19.1371 8.68302 19.2307C8.58294 19.3243 8.4647 19.3963 8.33562 19.4423C8.20655 19.4883 8.06941 19.5072 7.9327 19.498C7.84231 19.4919 7.75197 19.5105 7.67133 19.5518C7.59069 19.5931 7.52278 19.6555 7.47485 19.7324C7.42693 19.8093 7.4008 19.8977 7.39924 19.9883C7.39769 20.0789 7.42078 20.1682 7.46604 20.2467C7.85063 20.9148 8.44505 21.4372 9.15699 21.7329C9.86894 22.0286 10.6586 22.0809 11.4033 21.8818C12.1481 21.6827 12.8063 21.2433 13.2757 20.6318C13.7451 20.0203 13.9995 19.2709 13.9994 18.5C13.9994 18.1717 13.9347 17.8466 13.8091 17.5433C13.6834 17.24 13.4993 16.9644 13.2671 16.7322C13.035 16.5001 12.7594 16.3159 12.4561 16.1903C12.1528 16.0647 11.8283 16 11.5 16Z" fill="#2E9E8D"/>
</svg>
