<svg width="30" height="30" viewBox="0 0 30 30" fill="none" xmlns="http://www.w3.org/2000/svg">
<rect x="3" y="3" width="24" height="24" rx="12" fill="#D4F3EC"/>
<rect x="3" y="3" width="24" height="24" rx="12" stroke="#F2FBF9" stroke-width="6"/>
<path d="M13.9761 12.8307C14.1274 12.7107 14.3074 12.6233 14.5001 12.568V14.4313C14.3099 14.3793 14.1318 14.2902 13.9761 14.1693C13.7134 13.9607 13.6121 13.7153 13.6121 13.5C13.6121 13.2847 13.7134 13.0393 13.9761 12.8307ZM15.5001 17.4413V15.5587C15.7314 15.6153 15.9427 15.7107 16.1141 15.8393C16.3987 16.0527 16.5001 16.2967 16.5001 16.5C16.5001 16.7033 16.3987 16.9473 16.1141 17.1607C15.9303 17.2943 15.7215 17.3902 15.5001 17.4413Z" fill="#2E9E8D"/>
<path fill-rule="evenodd" clip-rule="evenodd" d="M15 8.5C11.41 8.5 8.5 11.41 8.5 15C8.5 18.59 11.41 21.5 15 21.5C18.59 21.5 21.5 18.59 21.5 15C21.5 11.41 18.59 8.5 15 8.5ZM15.5 11C15.5 10.8674 15.4473 10.7402 15.3536 10.6464C15.2598 10.5527 15.1326 10.5 15 10.5C14.8674 10.5 14.7402 10.5527 14.6464 10.6464C14.5527 10.7402 14.5 10.8674 14.5 11V11.544C14.0819 11.6144 13.6879 11.7875 13.3533 12.048C12.8787 12.4253 12.612 12.948 12.612 13.5C12.612 14.0527 12.8787 14.5747 13.354 14.952C13.6887 15.2187 14.0887 15.3833 14.5 15.456V17.4413C14.2785 17.39 14.0697 17.2945 13.886 17.1607L13.3 16.7207C13.2475 16.6813 13.1877 16.6526 13.1241 16.6363C13.0605 16.62 12.9943 16.6164 12.9293 16.6257C12.798 16.6444 12.6796 16.7146 12.6 16.8207C12.5204 16.9268 12.4863 17.0601 12.505 17.1914C12.5238 17.3227 12.5939 17.4411 12.7 17.5207L13.286 17.9607C13.6413 18.2273 14.0653 18.3907 14.5 18.4607V19C14.5 19.1326 14.5527 19.2598 14.6464 19.3536C14.7402 19.4473 14.8674 19.5 15 19.5C15.1326 19.5 15.2598 19.4473 15.3536 19.3536C15.4473 19.2598 15.5 19.1326 15.5 19V18.46C15.939 18.394 16.3556 18.2227 16.714 17.9607C17.2107 17.588 17.5 17.0647 17.5 16.5C17.5 15.9353 17.2107 15.412 16.714 15.0393C16.3557 14.777 15.9391 14.6055 15.5 14.5393V12.5693C15.6933 12.624 15.8727 12.7113 16.024 12.8313L16.3007 13.0513C16.4045 13.1338 16.5369 13.1717 16.6687 13.1565C16.8005 13.1414 16.9209 13.0745 17.0033 12.9707C17.0858 12.8668 17.1237 12.7344 17.1085 12.6026C17.0934 12.4709 17.0265 12.3505 16.9227 12.268L16.646 12.048C16.3116 11.7879 15.9178 11.6149 15.5 11.5447V11Z" fill="#2E9E8D"/>
</svg>
