<svg width="30" height="30" viewBox="0 0 30 30" fill="none" xmlns="http://www.w3.org/2000/svg">
<rect x="3" y="3" width="24" height="24" rx="12" fill="#D4F3EC"/>
<rect x="3" y="3" width="24" height="24" rx="12" stroke="#F2FBF9" stroke-width="6"/>
<path fill-rule="evenodd" clip-rule="evenodd" d="M12 10.5C12 9.96957 12.2107 9.46086 12.5858 9.08579C12.9609 8.71071 13.4696 8.5 14 8.5H16C16.5304 8.5 17.0391 8.71071 17.4142 9.08579C17.7893 9.46086 18 9.96957 18 10.5V10.6367C18.622 10.6933 19.238 10.768 19.8493 10.8593C20.8187 11.0047 21.5 11.848 21.5 12.804V14.826C21.5 15.6333 21.0107 16.394 20.2093 16.6607C18.5292 17.2184 16.7702 17.5018 15 17.5C13.18 17.5 11.4287 17.2053 9.79067 16.6607C8.98933 16.394 8.5 15.6333 8.5 14.826V12.804C8.5 11.848 9.18133 11.004 10.1507 10.8593C10.7649 10.7675 11.3816 10.6932 12 10.6367V10.5ZM17 10.5V10.56C15.6679 10.4791 14.3321 10.4791 13 10.56V10.5C13 10.2348 13.1054 9.98043 13.2929 9.79289C13.4804 9.60536 13.7348 9.5 14 9.5H16C16.2652 9.5 16.5196 9.60536 16.7071 9.79289C16.8946 9.98043 17 10.2348 17 10.5ZM15 16C15.1326 16 15.2598 15.9473 15.3536 15.8536C15.4473 15.7598 15.5 15.6326 15.5 15.5C15.5 15.3674 15.4473 15.2402 15.3536 15.1464C15.2598 15.0527 15.1326 15 15 15C14.8674 15 14.7402 15.0527 14.6464 15.1464C14.5527 15.2402 14.5 15.3674 14.5 15.5C14.5 15.6326 14.5527 15.7598 14.6464 15.8536C14.7402 15.9473 14.8674 16 15 16Z" fill="#2E9E8D"/>
<path d="M9 19.2667V17.4027C9.15188 17.4858 9.31097 17.5549 9.47533 17.6093C11.2571 18.2009 13.1226 18.5017 15 18.5C16.928 18.5 18.7867 18.188 20.5247 17.61C20.6927 17.554 20.8513 17.484 21 17.4027V19.2667C21 20.2347 20.302 21.0853 19.318 21.2153C17.9047 21.4033 16.4633 21.5 15 21.5C13.556 21.5003 12.1135 21.4052 10.682 21.2153C9.698 21.0853 9 20.2347 9 19.2667Z" fill="#2E9E8D"/>
</svg>
