<svg width="30" height="30" viewBox="0 0 30 30" fill="none" xmlns="http://www.w3.org/2000/svg">
<rect x="3" y="3" width="24" height="24" rx="12" fill="#D4F3EC"/>
<rect x="3" y="3" width="24" height="24" rx="12" stroke="#F2FBF9" stroke-width="6"/>
<path fill-rule="evenodd" clip-rule="evenodd" d="M8.5 11C8.5 10.4696 8.71071 9.96086 9.08579 9.58579C9.46086 9.21071 9.96957 9 10.5 9H19.5C20.0304 9 20.5391 9.21071 20.9142 9.58579C21.2893 9.96086 21.5 10.4696 21.5 11V19C21.5 19.5304 21.2893 20.0391 20.9142 20.4142C20.5391 20.7893 20.0304 21 19.5 21H10.5C9.96957 21 9.46086 20.7893 9.08579 20.4142C8.71071 20.0391 8.5 19.5304 8.5 19V11ZM11.1467 11.6467C11.2404 11.553 11.3675 11.5004 11.5 11.5004C11.6325 11.5004 11.7596 11.553 11.8533 11.6467L13.3533 13.1467C13.447 13.2404 13.4996 13.3675 13.4996 13.5C13.4996 13.6325 13.447 13.7596 13.3533 13.8533L11.8533 15.3533C11.7586 15.4417 11.6332 15.4897 11.5037 15.4875C11.3741 15.4852 11.2505 15.4327 11.1589 15.3411C11.0673 15.2495 11.0148 15.1259 11.0126 14.9963C11.0103 14.8668 11.0583 14.7415 11.1467 14.6467L12.2933 13.5L11.1467 12.3533C11.053 12.2596 11.0004 12.1325 11.0004 12C11.0004 11.8675 11.053 11.7404 11.1467 11.6467ZM14 14.5C13.8674 14.5 13.7402 14.5527 13.6464 14.6464C13.5527 14.7402 13.5 14.8674 13.5 15C13.5 15.1326 13.5527 15.2598 13.6464 15.3536C13.7402 15.4473 13.8674 15.5 14 15.5H16C16.1326 15.5 16.2598 15.4473 16.3536 15.3536C16.4473 15.2598 16.5 15.1326 16.5 15C16.5 14.8674 16.4473 14.7402 16.3536 14.6464C16.2598 14.5527 16.1326 14.5 16 14.5H14Z" fill="#2E9E8D"/>
</svg>
