<svg width="30" height="30" viewBox="0 0 30 30" fill="none" xmlns="http://www.w3.org/2000/svg">
<rect x="3" y="3" width="24" height="24" rx="12" fill="#D4F3EC"/>
<rect x="3" y="3" width="24" height="24" rx="12" stroke="#F2FBF9" stroke-width="6"/>
<path fill-rule="evenodd" clip-rule="evenodd" d="M15.344 8.44665C15.2511 8.35859 15.128 8.30951 15 8.30951C14.872 8.30951 14.7489 8.35859 14.656 8.44665C13.2409 9.79057 11.3561 10.5275 9.40467 10.5C9.29836 10.4986 9.19438 10.5311 9.10782 10.5929C9.02126 10.6546 8.95664 10.7424 8.92334 10.8433C8.64199 11.7008 8.49908 12.5976 8.5 13.5C8.5 17.4613 11.2093 20.7887 14.8753 21.732C14.9571 21.7531 15.0429 21.7531 15.1247 21.732C18.7907 20.7887 21.5 17.4613 21.5 13.5C21.5 12.5733 21.3513 11.68 21.0767 10.8433C21.0435 10.7422 20.9789 10.6544 20.8923 10.5925C20.8058 10.5306 20.7017 10.498 20.5953 10.4993L20.5 10.5C18.5027 10.5 16.6887 9.71999 15.344 8.44665ZM17.4067 13.7907C17.4467 13.7374 17.4756 13.6766 17.4918 13.612C17.508 13.5473 17.5111 13.4801 17.5009 13.4142C17.4907 13.3484 17.4675 13.2852 17.4326 13.2285C17.3976 13.1717 17.3517 13.1225 17.2975 13.0838C17.2433 13.045 17.1819 13.0175 17.1169 13.0028C17.0519 12.9881 16.9846 12.9866 16.919 12.9983C16.8534 13.01 16.7908 13.0347 16.7349 13.0709C16.6789 13.1072 16.6308 13.1542 16.5933 13.2093L14.436 16.2293L13.3533 15.1467C13.2586 15.0583 13.1332 15.0103 13.0037 15.0125C12.8741 15.0148 12.7505 15.0673 12.6589 15.1589C12.5673 15.2505 12.5148 15.3741 12.5126 15.5036C12.5103 15.6332 12.5584 15.7585 12.6467 15.8533L14.1467 17.3533C14.198 17.4046 14.2599 17.4441 14.328 17.4691C14.3961 17.4941 14.4689 17.5039 14.5412 17.4979C14.6135 17.492 14.6836 17.4703 14.7468 17.4346C14.8099 17.3988 14.8644 17.3497 14.9067 17.2907L17.4067 13.7907Z" fill="#2E9E8D"/>
</svg>
