<svg width="30" height="30" viewBox="0 0 30 30" fill="none" xmlns="http://www.w3.org/2000/svg">
<rect x="3" y="3" width="24" height="24" rx="12" fill="#D4F3EC"/>
<rect x="3" y="3" width="24" height="24" rx="12" stroke="#F2FBF9" stroke-width="6"/>
<path fill-rule="evenodd" clip-rule="evenodd" d="M17.1466 11.1787C17.1942 11.0551 17.2889 10.9554 17.4099 10.9015C17.5309 10.8477 17.6683 10.844 17.792 10.8913L21.7533 12.4113C21.8146 12.4349 21.8708 12.4703 21.9184 12.5156C21.9661 12.5608 22.0043 12.615 22.031 12.6751C22.0577 12.7352 22.0723 12.7999 22.0739 12.8656C22.0756 12.9313 22.0643 12.9967 22.0406 13.058L20.5206 17.018C20.4984 17.081 20.4638 17.1389 20.4188 17.1883C20.3738 17.2376 20.3194 17.2775 20.2588 17.3055C20.1981 17.3335 20.1325 17.3491 20.0657 17.3513C19.999 17.3535 19.9324 17.3423 19.8701 17.3184C19.8077 17.2945 19.7508 17.2583 19.7026 17.212C19.6545 17.1657 19.6161 17.1103 19.5897 17.0489C19.5634 16.9875 19.5496 16.9215 19.5491 16.8547C19.5487 16.7879 19.5617 16.7217 19.5873 16.66L20.674 13.826L19.95 14.1487C18.3779 14.8455 17.0945 16.0637 16.3166 17.5973C16.2808 17.6677 16.2289 17.7286 16.165 17.775C16.1012 17.8214 16.0272 17.8521 15.9492 17.8644C15.8713 17.8768 15.7915 17.8705 15.7164 17.8461C15.6413 17.8217 15.5731 17.7799 15.5173 17.724L13 15.208L8.85329 19.3547C8.75895 19.4457 8.63262 19.496 8.50152 19.4948C8.37043 19.4936 8.24504 19.441 8.15238 19.3483C8.05972 19.2555 8.0072 19.1301 8.00612 18.999C8.00504 18.8679 8.0555 18.7416 8.14663 18.6473L12.6466 14.1473C12.7404 14.0537 12.8675 14.0011 13 14.0011C13.1325 14.0011 13.2595 14.0537 13.3533 14.1473L15.7573 16.5513C16.654 15.0876 17.9747 13.9311 19.544 13.2353L20.268 12.9133L17.434 11.8253C17.3725 11.8018 17.3164 11.7665 17.2686 11.7212C17.2209 11.676 17.1826 11.6218 17.1558 11.5617C17.1291 11.5017 17.1144 11.4369 17.1127 11.3712C17.111 11.3055 17.1223 11.24 17.146 11.1787H17.1466Z" fill="#2E9E8D"/>
</svg>
