<svg width="42" height="42" viewBox="0 0 42 42" fill="none" xmlns="http://www.w3.org/2000/svg">
<rect x="3" y="3" width="36" height="36" rx="18" fill="#D4F3EC"/>
<rect x="3" y="3" width="36" height="36" rx="18" stroke="#F2FBF9" stroke-width="6"/>
<path fill-rule="evenodd" clip-rule="evenodd" d="M12.875 15.375C12.875 14.712 13.1384 14.0761 13.6072 13.6072C14.0761 13.1384 14.712 12.875 15.375 12.875H26.625C27.288 12.875 27.9239 13.1384 28.3928 13.6072C28.8616 14.0761 29.125 14.712 29.125 15.375V23.5C29.125 24.163 28.8616 24.7989 28.3928 25.2678C27.9239 25.7366 27.288 26 26.625 26H24.125V26.2142C24.125 26.7117 24.3225 27.1892 24.6742 27.54L25.1917 28.0583C25.279 28.1457 25.3384 28.2571 25.3625 28.3782C25.3865 28.4994 25.3742 28.625 25.3269 28.7391C25.2796 28.8532 25.1996 28.9508 25.0969 29.0195C24.9943 29.0882 24.8735 29.1249 24.75 29.125H17.25C17.1265 29.1249 17.0057 29.0882 16.9031 29.0195C16.8004 28.9508 16.7204 28.8532 16.6731 28.7391C16.6258 28.625 16.6135 28.4994 16.6375 28.3782C16.6616 28.2571 16.721 28.1457 16.8083 28.0583L17.3258 27.54C17.6773 27.1886 17.8748 26.712 17.875 26.215V26H15.375C14.712 26 14.0761 25.7366 13.6072 25.2678C13.1384 24.7989 12.875 24.163 12.875 23.5V15.375ZM14.125 15.375V21.625C14.125 21.9565 14.2567 22.2745 14.4911 22.5089C14.7255 22.7433 15.0435 22.875 15.375 22.875H26.625C26.9565 22.875 27.2745 22.7433 27.5089 22.5089C27.7433 22.2745 27.875 21.9565 27.875 21.625V15.375C27.875 15.0435 27.7433 14.7255 27.5089 14.4911C27.2745 14.2567 26.9565 14.125 26.625 14.125H15.375C15.0435 14.125 14.7255 14.2567 14.4911 14.4911C14.2567 14.7255 14.125 15.0435 14.125 15.375Z" fill="#2E9E8D"/>
</svg>
