<svg width="42" height="42" viewBox="0 0 42 42" fill="none" xmlns="http://www.w3.org/2000/svg">
<rect x="3" y="3" width="36" height="36" rx="18" fill="#D4F3EC"/>
<rect x="3" y="3" width="36" height="36" rx="18" stroke="#F2FBF9" stroke-width="6"/>
<path d="M29.3337 21.0001C29.3337 25.6024 25.6027 29.3334 21.0003 29.3334C16.398 29.3334 12.667 25.6024 12.667 21.0001C12.667 16.3977 16.398 12.6667 21.0003 12.6667C25.6027 12.6667 29.3337 16.3977 29.3337 21.0001ZM23.1719 27.3051L21.3763 22.3173L19.5587 27.5105C20.0229 27.6128 20.5053 27.6667 21.0003 27.6667C21.7607 27.6667 22.4912 27.5395 23.1719 27.3051ZM25.2287 26.1545C26.7174 24.9318 27.667 23.0768 27.667 21.0001C27.667 20.1452 27.5061 19.328 27.213 18.577C27.0043 19.7883 26.6361 21.368 26.3998 22.1728L25.2287 26.1545ZM25.0608 15.7123C23.9364 14.8475 22.5284 14.3334 21.0003 14.3334C18.895 14.3334 17.0176 15.3093 15.7959 16.8334H16.9545V18.5001H16.3299L18.6255 25.1317L20.481 19.8302L20.0021 18.5001H18.2045L18.2045 16.8334H22.3712L22.3712 18.5001H21.7735L23.958 24.5682L24.8008 21.7025C25.2373 20.1747 24.8778 19.509 24.5188 18.8445C24.2782 18.399 24.0378 17.954 24.0378 17.2501C24.0378 16.5578 24.4599 15.9641 25.0608 15.7123ZM14.6877 18.851C14.4582 19.5252 14.3337 20.2482 14.3337 21.0001C14.3337 23.3416 15.5408 25.4012 17.3667 26.5904L14.6877 18.851Z" fill="#2E9E8D"/>
</svg>
